<?xml version="1.0" encoding="utf-8"?>
<!-- Generator: Adobe Illustrator 23.0.6, SVG Export Plug-In . SVG Version: 6.00 Build 0)  -->
<svg version="1.1" id="Layer_1" xmlns="http://www.w3.org/2000/svg" xmlns:xlink="http://www.w3.org/1999/xlink" x="0px" y="0px"
	 viewBox="0 0 48 48" style="enable-background:new 0 0 48 48;" xml:space="preserve">
<style type="text/css">
	.st0{fill:#010002;}
</style>
<path class="st0" d="M24,0.1c-13.25,0-24,10.75-24,24c0,11.89,8.65,21.73,20,23.64V29.11h-5.79V22.4H20v-4.94
	c0-5.74,3.5-8.86,8.62-8.86c2.45,0,4.56,0.18,5.17,0.26v6l-3.55,0c-2.78,0-3.32,1.32-3.32,3.26v4.28h6.64l-0.87,6.71h-5.77v18.8
	C38.79,46.45,48,36.36,48,24.09C48,10.85,37.25,0.1,24,0.1z"/>
</svg>
